<?xml version="1.0" standalone="no"?>
<!DOCTYPE svg PUBLIC "-//W3C//DTD SVG 20010904//EN"
 "http://www.w3.org/TR/2001/REC-SVG-20010904/DTD/svg10.dtd">
<svg version="1.0" xmlns="http://www.w3.org/2000/svg"
 width="711.000000pt" height="711.000000pt" viewBox="0 0 711.000000 711.000000"
 preserveAspectRatio="xMidYMid meet">
<metadata>
Created by potrace 1.11, written by Peter Selinger 2001-2013
</metadata>
<g transform="translate(0.000000,711.000000) scale(0.100000,-0.100000)"
fill="#000000" stroke="none">
<path d="M2110 6109 c-571 -71 -1045 -363 -1354 -835 -207 -317 -318 -660
-351 -1085 l-6 -77 -43 -4 c-68 -8 -113 -35 -136 -82 -17 -36 -20 -62 -20
-164 l0 -122 -34 0 c-18 0 -48 -10 -67 -23 l-34 -23 -3 -440 -2 -440 24 -23
c15 -15 42 -25 70 -28 l44 -5 4 -132 c3 -142 12 -174 61 -210 19 -14 47 -21
92 -24 l64 -4 11 -57 c64 -332 157 -568 325 -821 219 -329 521 -578 863 -711
79 -30 329 -99 361 -99 13 0 25 -17 41 -62 45 -123 156 -197 280 -185 73 6
127 35 178 92 106 120 98 321 -17 428 -62 58 -108 77 -185 77 -96 -1 -192 -55
-232 -132 -16 -32 -18 -31 -174 8 -179 44 -323 110 -491 222 -370 248 -642
654 -749 1115 -25 111 -25 134 0 142 11 3 32 23 48 42 l27 36 3 749 c2 719 2
750 -17 792 -14 33 -28 48 -61 62 l-42 19 6 115 c15 309 118 631 289 901 338
537 932 846 1518 791 229 -22 376 -64 584 -167 162 -80 285 -168 418 -299 132
-130 139 -139 118 -154 -14 -9 -13 -10 4 -7 11 1 26 -3 34 -9 19 -15 185 -76
243 -89 78 -18 82 -27 -86 201 -70 95 -274 296 -381 375 -228 168 -494 280
-793 332 -107 19 -336 26 -432 14z"/>
<path d="M3408 5303 c6 -2 18 -2 25 0 6 3 1 5 -13 5 -14 0 -19 -2 -12 -5z"/>
<path d="M2725 5075 c-758 -140 -1295 -776 -1295 -1535 0 -859 695 -1554 1555
-1553 425 1 808 162 1110 468 405 410 549 1037 363 1580 -178 517 -594 895
-1128 1022 -91 22 -133 26 -315 29 -155 2 -231 -1 -290 -11z m-672 -1204 c4
-1 7 -100 7 -221 l0 -220 -34 0 c-63 0 -66 9 -66 225 0 188 1 194 22 209 12 8
31 14 42 11 12 -2 24 -4 29 -4z m1919 -13 c4 -7 8 -99 8 -205 0 -214 -3 -223
-66 -223 l-34 0 0 218 c0 120 3 222 8 226 10 11 74 -1 84 -16z"/>
<path d="M1992 3828 c-14 -14 -17 -315 -3 -336 5 -8 17 -12 27 -10 18 3 19 16
22 172 2 129 -1 171 -10 178 -17 10 -22 10 -36 -4z"/>
<path d="M3904 3827 c-2 -7 -3 -87 -2 -177 3 -152 4 -165 22 -168 10 -2 22 2
27 10 12 19 11 305 -1 329 -12 22 -38 25 -46 6z"/>
<path d="M5767 5059 c7 -7 15 -10 18 -7 3 3 -2 9 -12 12 -14 6 -15 5 -6 -5z"/>
<path d="M4440 4846 c0 -2 8 -10 18 -17 15 -13 16 -12 3 4 -13 16 -21 21 -21
13z"/>
<path d="M4525 4772 c11 -13 29 -28 40 -34 21 -11 18 -8 -30 32 -29 24 -29 24
-10 2z"/>
<path d="M4700 4750 c6 -11 13 -20 16 -20 2 0 0 9 -6 20 -6 11 -13 20 -16 20
-2 0 0 -9 6 -20z"/>
<path d="M4696 4717 c3 -10 9 -15 12 -12 3 3 0 11 -7 18 -10 9 -11 8 -5 -6z"/>
<path d="M4766 4677 c3 -10 9 -15 12 -12 3 3 0 11 -7 18 -10 9 -11 8 -5 -6z"/>
<path d="M4916 4488 c10 -14 21 -24 23 -22 3 3 -6 15 -18 27 l-24 22 19 -27z"/>
<path d="M4935 4440 c-4 -7 -2 -17 4 -23 9 -9 11 -7 6 8 -7 20 -6 20 9 1 9
-11 16 -15 16 -9 0 18 -27 36 -35 23z"/>
<path d="M4906 4417 c3 -10 9 -15 12 -12 3 3 0 11 -7 18 -10 9 -11 8 -5 -6z"/>
<path d="M6745 4359 c-4 -6 -5 -12 -2 -15 2 -3 7 2 10 11 7 17 1 20 -8 4z"/>
<path d="M5150 4001 c0 -6 4 -13 10 -16 6 -3 7 1 4 9 -7 18 -14 21 -14 7z"/>
<path d="M5095 3669 c-4 -6 -5 -12 -2 -15 2 -3 7 2 10 11 7 17 1 20 -8 4z"/>
<path d="M5080 3285 c0 -5 5 -17 10 -25 5 -8 10 -10 10 -5 0 6 -5 17 -10 25
-5 8 -10 11 -10 5z"/>
<path d="M6826 2843 c-6 -14 -5 -15 5 -6 7 7 10 15 7 18 -3 3 -9 -2 -12 -12z"/>
<path d="M4900 2755 c0 -5 5 -17 10 -25 5 -8 10 -10 10 -5 0 6 -5 17 -10 25
-5 8 -10 11 -10 5z"/>
<path d="M6676 2598 c3 -5 10 -6 15 -3 13 9 11 12 -6 12 -8 0 -12 -4 -9 -9z"/>
<path d="M6486 2412 c-3 -5 1 -9 9 -9 8 0 12 4 9 9 -3 4 -7 8 -9 8 -2 0 -6 -4
-9 -8z"/>
<path d="M4609 2363 c-13 -16 -12 -17 4 -4 16 13 21 21 13 21 -2 0 -10 -8 -17
-17z"/>
<path d="M6409 2343 c-13 -16 -12 -17 4 -4 9 7 17 15 17 17 0 8 -8 3 -21 -13z"/>
<path d="M4340 2129 c0 -5 5 -7 10 -4 6 3 10 8 10 11 0 2 -4 4 -10 4 -5 0 -10
-5 -10 -11z"/>
<path d="M4209 2043 c-13 -16 -12 -17 4 -4 16 13 21 21 13 21 -2 0 -10 -8 -17
-17z"/>
<path d="M4080 1970 c-8 -5 -10 -10 -5 -10 6 0 17 5 25 10 8 5 11 10 5 10 -5
0 -17 -5 -25 -10z"/>
<path d="M2885 1461 c-3 -5 -2 -12 3 -15 5 -3 9 1 9 9 0 17 -3 19 -12 6z"/>
<path d="M2760 1370 c-9 -6 -10 -10 -3 -10 6 0 15 5 18 10 8 12 4 12 -15 0z"/>
<path d="M2705 1360 c-3 -6 1 -7 9 -4 18 7 21 14 7 14 -6 0 -13 -4 -16 -10z"/>
<path d="M2669 1333 c-13 -16 -12 -17 4 -4 9 7 17 15 17 17 0 8 -8 3 -21 -13z"/>
</g>
</svg>
